<?xml version="1.0" ?><!DOCTYPE svg  PUBLIC '-//W3C//DTD SVG 1.1//EN'  'http://www.w3.org/Graphics/SVG/1.1/DTD/svg11.dtd'><svg enable-background="new 0 0 512 512" height="512px" id="Layer_1" version="1.1" viewBox="0 0 512 512" width="512px" xml:space="preserve" xmlns="http://www.w3.org/2000/svg" xmlns:xlink="http://www.w3.org/1999/xlink"><linearGradient gradientUnits="userSpaceOnUse" id="SVGID_1_" x1="18.9215" x2="401.4024" y1="-8.0404" y2="417.9384"><stop offset="0" style="stop-color:#11A4DC"/><stop offset="0.5051" style="stop-color:#0F94C9"/><stop offset="1" style="stop-color:#0C82B4"/></linearGradient><path d="M256,7.098C118.535,7.098,7.098,118.535,7.098,256S118.535,504.902,256,504.902  c137.465,0,248.902-111.437,248.902-248.902S393.465,7.098,256,7.098z M377.17,193.848c0.118,2.685,0.173,5.387,0.173,8.097  c0,82.613-62.875,177.87-177.87,177.87c-35.3,0-68.158-10.342-95.832-28.088c4.893,0.581,9.872,0.878,14.913,0.878  c29.294,0,56.244-9.996,77.64-26.765c-27.352-0.501-50.437-18.581-58.397-43.416c3.816,0.736,7.732,1.126,11.765,1.126  c5.703,0,11.227-0.767,16.472-2.19c-28.602-5.752-50.152-31.014-50.152-61.298c0-0.266,0-0.532,0.006-0.792  c8.431,4.682,18.074,7.497,28.317,7.825c-16.775-11.208-27.81-30.346-27.81-52.032c0-11.468,3.08-22.206,8.462-31.435  c30.835,37.824,76.904,62.709,128.862,65.319c-1.07-4.584-1.621-9.353-1.621-14.245c0-34.527,27.989-62.517,62.511-62.517  c17.981,0,34.23,7.596,45.63,19.744c14.245-2.808,27.618-8.01,39.698-15.179c-4.67,14.61-14.573,26.857-27.488,34.589  c12.649-1.503,24.705-4.862,35.907-9.841C399.982,174.036,389.381,185.052,377.17,193.848z" fill="url(#SVGID_1_)"/></svg>